<svg id="图层_1" data-name="图层 1" xmlns="http://www.w3.org/2000/svg" viewBox="0 0 257.41 118.5"><defs><style>.cls-1{fill:#009844;}.cls-2{fill:#231815;}</style></defs><path class="cls-1" d="M161.88,221.13l16.66,2.33-.76,5.4c-3.11,5.86-9.93,8.64-18.67,7.42-11.84-1.65-17.76-10.42-15.93-23.54,1.9-13.57,9.48-19.92,21.76-18.2,6.75.94,11.4,4.28,14,10a7.36,7.36,0,0,0,9.38,4.65c-2.29-9-5.55-12.84-8-15.28a25,25,0,0,0-14.35-6.6c-8-1.11-14.83.55-20.15,4.79a22.88,22.88,0,0,0-2.47,2.34,22.38,22.38,0,0,0-5.55-30.89,25.28,25.28,0,0,0,4.91,31.64l-.14.16a42.25,42.25,0,0,0-6,1,40.86,40.86,0,0,0-15.5,7.59,22.21,22.21,0,0,0,20.36-7.16,33.84,33.84,0,0,0-5.56,14.94,33.09,33.09,0,0,0,1,14.15h-.06l10.43,50.57a7.07,7.07,0,0,0,13.11,1.84L184.2,232.5l-.08,0c.28-.48.58-.92.83-1.43l2-13.82-16.79-2.34A7.36,7.36,0,0,0,161.88,221.13Zm-7.79,54.18-7.38-35.91c.36.23.67.51,1,.74a31.62,31.62,0,0,0,19.57,3.52,34.15,34.15,0,0,0,3.71-.84Z" transform="translate(-66 -163.51)"/><path class="cls-2" d="M99.64,240.6l-9.76,1.08a5.28,5.28,0,0,0-5.44-3.81q-4,0-6.35,4a17,17,0,0,0-2.34,8.67,6.2,6.2,0,0,0,1.74,4.48,5.87,5.87,0,0,0,4.43,1.81H82a9.37,9.37,0,0,0,5.39-1.58l.72-3.44H82.06l1.44-6.7h15l-3.22,15.09A33.17,33.17,0,0,1,80.41,264q-6.63,0-10.52-3.6T66,250.29a20.45,20.45,0,0,1,2.48-10,17.49,17.49,0,0,1,7-7,20.9,20.9,0,0,1,10.33-2.51Q97.17,230.77,99.64,240.6Z" transform="translate(-66 -163.51)"/><path class="cls-2" d="M121,230.77q7.33,0,10.78,3.93a14.18,14.18,0,0,1,3.43,9.67,23.55,23.55,0,0,1-.63,5,19.94,19.94,0,0,1-2.45,5.87,17.56,17.56,0,0,1-4.72,5.15,17.06,17.06,0,0,1-5.58,2.82,21.7,21.7,0,0,1-5.67.72q-6.89,0-10.73-3.49t-3.86-9.77a22,22,0,0,1,1-6.4,21.66,21.66,0,0,1,2.85-5.89,17.36,17.36,0,0,1,4.67-4.65,15.47,15.47,0,0,1,5.45-2.44A26.48,26.48,0,0,1,121,230.77Zm-4.23,25.89a6.36,6.36,0,0,0,4.87-2.17,13,13,0,0,0,2.93-5.46,20.65,20.65,0,0,0,.92-4.7,6.34,6.34,0,0,0-1.57-4.67,5.37,5.37,0,0,0-4-1.57,6.35,6.35,0,0,0-4.68,2,12.38,12.38,0,0,0-2.95,5.28,20.36,20.36,0,0,0-1,5.62,5.91,5.91,0,0,0,1.44,4.07A5.11,5.11,0,0,0,116.73,256.66Z" transform="translate(-66 -163.51)"/><path class="cls-2" d="M209.78,263.43h-9.72l-.44-5.26H189.15l-2.5,5.26H176l18.14-32.11h10.58ZM199,251.36l-1-11.7h-.09l-5.52,11.7Z" transform="translate(-66 -163.51)"/><path class="cls-2" d="M242.44,231.32l-6.9,32.11h-8.25l.43-2.32-.08-.11a11.68,11.68,0,0,1-3.41,2.36,9.62,9.62,0,0,1-3.62.62,7.3,7.3,0,0,1-6-2.62,11,11,0,0,1-2.09-7A17.28,17.28,0,0,1,215.62,244a9.44,9.44,0,0,1,7.94-4.39,8.4,8.4,0,0,1,7.41,3.66l2.54-12Zm-18.22,26.81c1.65,0,2.92-.93,3.8-2.77a13.08,13.08,0,0,0,1.33-5.67,4.11,4.11,0,0,0-1-3.05,3.32,3.32,0,0,0-2.38-1c-1.3,0-2.42.83-3.35,2.49a11.93,11.93,0,0,0-1.4,6,4.66,4.66,0,0,0,.84,3A2.72,2.72,0,0,0,224.22,258.13Z" transform="translate(-66 -163.51)"/><path class="cls-2" d="M266.76,243.61a16.24,16.24,0,0,1,4.6-3.12,11.89,11.89,0,0,1,4.42-.83,6.17,6.17,0,0,1,4.73,1.68,5.68,5.68,0,0,1,1.58,4.06,13.18,13.18,0,0,1-.28,2.76l-3.31,15.27h-9l2.15-9.92c.54-2.53.84-4,.9-4.52s.08-.81.08-1c0-1.22-.57-1.82-1.7-1.82a4,4,0,0,0-3.3,1.66,13.08,13.08,0,0,0-2.07,5.26l-2.21,10.34h-9l2.1-9.75c.56-2.61.87-4.16.93-4.64a8.12,8.12,0,0,0,.1-1.1,1.58,1.58,0,0,0-1.8-1.77,4.33,4.33,0,0,0-2.85,1.39,8.86,8.86,0,0,0-2.23,4.72l-2.41,11.15h-9l5-23.24h8.3l-.73,3.33.09.09a11.77,11.77,0,0,1,8.61-4,7.37,7.37,0,0,1,3.88,1A5.31,5.31,0,0,1,266.76,243.61Z" transform="translate(-66 -163.51)"/><path class="cls-2" d="M296.51,240.19l-5,23.24h-9l5-23.24Zm1.84-8.87-1.27,6.13h-8.92l1.25-6.13Z" transform="translate(-66 -163.51)"/><path class="cls-2" d="M308.12,243.78a11.6,11.6,0,0,1,9-4.12,6.36,6.36,0,0,1,4.73,1.61,5.45,5.45,0,0,1,1.58,4,34.11,34.11,0,0,1-.88,5.52l-2.69,12.68H310.9l2.3-10.8a45.35,45.35,0,0,0,.83-4.53c0-1.29-.58-1.93-1.75-1.93a4.3,4.3,0,0,0-3.44,1.85,12.78,12.78,0,0,0-2.21,5.33l-2.19,10.08h-9l5-23.24h8.35l-.77,3.5Z" transform="translate(-66 -163.51)"/></svg>