<svg id="图层_1" data-name="图层 1" xmlns="http://www.w3.org/2000/svg" viewBox="0 0 68.86 32.5"><defs><style>.cls-1{fill:#009844;}.cls-2{fill:#231815;}.cls-3{fill:#e50012;}.cls-4{fill:#fff;}</style></defs><path class="cls-1" d="M241.08,249.45l4.45.62-.2,1.45c-.83,1.56-2.66,2.31-5,2-3.16-.44-4.75-2.78-4.25-6.29s2.53-5.33,5.82-4.87a4.52,4.52,0,0,1,3.75,2.66,2,2,0,0,0,2.51,1.25,8,8,0,0,0-2.15-4.09,6.7,6.7,0,0,0-3.84-1.77,6.84,6.84,0,0,0-5.39,1.28,6.6,6.6,0,0,0-.66.63,6,6,0,0,0-1.49-8.26,6.85,6.85,0,0,0-.85,2.34,8.21,8.21,0,0,0-.08,1.32,6.85,6.85,0,0,0,.2,1.4,6.67,6.67,0,0,0,2,3.4l0,0a12.92,12.92,0,0,0-1.61.28,11,11,0,0,0-4.14,2,6,6,0,0,0,2.45-.09,5.91,5.91,0,0,0,3-1.82,9.16,9.16,0,0,0-1.49,4,8.87,8.87,0,0,0,.28,3.79h0l2.79,13.53a1.89,1.89,0,0,0,3.51.49l6.38-12.25h0c.07-.12.15-.24.22-.38l.53-3.7-4.49-.62A2,2,0,0,0,241.08,249.45ZM239,263.94l-2-9.6.28.19a8.43,8.43,0,0,0,5.23.95,9,9,0,0,0,1-.23Z" transform="translate(-215.43 -234.04)"/><path class="cls-2" d="M224.43,254.66l-2.61.29a1.42,1.42,0,0,0-1.46-1,1.91,1.91,0,0,0-1.7,1.08,4.53,4.53,0,0,0-.62,2.32,1.65,1.65,0,0,0,.46,1.2,1.59,1.59,0,0,0,1.19.48h0a2.49,2.49,0,0,0,1.44-.42l.2-.92h-1.63l.39-1.79h4l-.86,4a8.93,8.93,0,0,1-4,1,4,4,0,0,1-2.81-1,3.5,3.5,0,0,1-1-2.7,5.5,5.5,0,0,1,.66-2.67A4.64,4.64,0,0,1,218,252.7a5.53,5.53,0,0,1,2.76-.67Q223.77,252,224.43,254.66Z" transform="translate(-215.43 -234.04)"/><path class="cls-2" d="M230.13,252a3.63,3.63,0,0,1,2.88,1.05,3.75,3.75,0,0,1,.92,2.59,5.92,5.92,0,0,1-.17,1.35,5.4,5.4,0,0,1-.65,1.57,4.77,4.77,0,0,1-1.27,1.38,4.64,4.64,0,0,1-1.49.75,5.68,5.68,0,0,1-1.51.19A4.16,4.16,0,0,1,226,260a3.36,3.36,0,0,1-1-2.61,5.88,5.88,0,0,1,.26-1.72,5.69,5.69,0,0,1,.76-1.57,4.65,4.65,0,0,1,1.25-1.25,4.16,4.16,0,0,1,1.46-.65A7.19,7.19,0,0,1,230.13,252ZM229,259a1.68,1.68,0,0,0,1.3-.58,3.48,3.48,0,0,0,.79-1.46,5.56,5.56,0,0,0,.24-1.25,1.69,1.69,0,0,0-.42-1.25,1.44,1.44,0,0,0-1.07-.42,1.68,1.68,0,0,0-1.25.53,3.32,3.32,0,0,0-.79,1.41,5.62,5.62,0,0,0-.26,1.5,1.57,1.57,0,0,0,.39,1.09A1.34,1.34,0,0,0,229,259Z" transform="translate(-215.43 -234.04)"/><path class="cls-2" d="M253.89,260.77h-2.6l-.12-1.41h-2.8l-.67,1.41h-2.86l4.86-8.59h2.83ZM251,257.54l-.26-3.13h0l-1.48,3.13Z" transform="translate(-215.43 -234.04)"/><path class="cls-2" d="M262.63,252.18l-1.85,8.59h-2.21l.12-.63,0,0a3.12,3.12,0,0,1-.91.64,2.63,2.63,0,0,1-1,.16,2,2,0,0,1-1.62-.7,2.94,2.94,0,0,1-.56-1.88,4.61,4.61,0,0,1,.84-2.76,2.53,2.53,0,0,1,2.13-1.17,2.25,2.25,0,0,1,2,1l.68-3.19Zm-4.88,7.17a1.12,1.12,0,0,0,1-.74,3.45,3.45,0,0,0,.35-1.52,1.14,1.14,0,0,0-.27-.82.9.9,0,0,0-.64-.27,1.06,1.06,0,0,0-.9.67,3.18,3.18,0,0,0-.37,1.6,1.23,1.23,0,0,0,.22.8A.72.72,0,0,0,257.75,259.35Z" transform="translate(-215.43 -234.04)"/><path class="cls-2" d="M269.13,255.46a4.5,4.5,0,0,1,1.23-.83,3.15,3.15,0,0,1,1.19-.22,1.64,1.64,0,0,1,1.26.45,1.51,1.51,0,0,1,.42,1.08,3.57,3.57,0,0,1-.07.74l-.89,4.09h-2.39l.57-2.66c.15-.68.23-1.08.24-1.21a1.66,1.66,0,0,0,0-.27q0-.48-.45-.48a1.08,1.08,0,0,0-.88.44,3.49,3.49,0,0,0-.56,1.41l-.59,2.77h-2.4l.57-2.61c.14-.7.23-1.12.25-1.24s0-.23,0-.3a.42.42,0,0,0-.48-.47,1.13,1.13,0,0,0-.76.37,2.39,2.39,0,0,0-.6,1.26l-.64,3h-2.41l1.34-6.22h2.22l-.19.89,0,0a3.16,3.16,0,0,1,2.3-1.05,2,2,0,0,1,1,.27A1.45,1.45,0,0,1,269.13,255.46Z" transform="translate(-215.43 -234.04)"/><path class="cls-2" d="M277.09,254.55l-1.34,6.22h-2.39l1.33-6.22Zm.49-2.37-.34,1.64h-2.38l.33-1.64Z" transform="translate(-215.43 -234.04)"/><path class="cls-2" d="M280.2,255.51a3.06,3.06,0,0,1,2.4-1.1,1.67,1.67,0,0,1,1.26.43,1.43,1.43,0,0,1,.43,1.06,8.62,8.62,0,0,1-.24,1.47l-.72,3.4h-2.39l.62-2.89c.14-.71.22-1.11.22-1.22,0-.34-.16-.51-.47-.51a1.15,1.15,0,0,0-.92.49,3.46,3.46,0,0,0-.59,1.43l-.59,2.7h-2.4l1.34-6.22h2.23l-.21.94Z" transform="translate(-215.43 -234.04)"/><path class="cls-3" d="M281,266.54H247a2.51,2.51,0,0,1-2.5-2.5h0a2.5,2.5,0,0,1,2.5-2.5h34a2.51,2.51,0,0,1,2.5,2.5h0A2.51,2.51,0,0,1,281,266.54Z" transform="translate(-215.43 -234.04)"/><path class="cls-4" d="M248.5,265.72l.71-3.37h1.4a1.27,1.27,0,0,1,.55.09.67.67,0,0,1,.3.28.9.9,0,0,1,.12.46,1.19,1.19,0,0,1-.3.78.71.71,0,0,1-.26.21,1,1,0,0,1-.28.11,3,3,0,0,1-.66.07h-.84l-.29,1.37Zm.82-1.75h.74a1.61,1.61,0,0,0,.63-.09.75.75,0,0,0,.33-.28.78.78,0,0,0,.12-.41.54.54,0,0,0-.06-.27.4.4,0,0,0-.19-.15,1.12,1.12,0,0,0-.45,0h-.86Z" transform="translate(-215.43 -234.04)"/><path class="cls-4" d="M253.29,264.89l.41,0a1.25,1.25,0,0,1-.4.58,1.11,1.11,0,0,1-.75.27,1,1,0,0,1-.5-.13.79.79,0,0,1-.34-.36,1.2,1.2,0,0,1-.12-.55,1.77,1.77,0,0,1,.18-.77,1.41,1.41,0,0,1,.48-.56,1.21,1.21,0,0,1,.64-.18.94.94,0,0,1,.7.27,1,1,0,0,1,.26.74,2.19,2.19,0,0,1,0,.36H252a.66.66,0,0,0,0,.13.76.76,0,0,0,.16.53.48.48,0,0,0,.38.18.78.78,0,0,0,.42-.14A.88.88,0,0,0,253.29,264.89Zm-1.21-.6h1.37a.44.44,0,0,0,0-.09.69.69,0,0,0-.16-.48.5.5,0,0,0-.4-.17.76.76,0,0,0-.49.18A1.26,1.26,0,0,0,252.08,264.29Z" transform="translate(-215.43 -234.04)"/><path class="cls-4" d="M254,265.72l.52-2.44h.36l-.1.5a1.77,1.77,0,0,1,.37-.42.6.6,0,0,1,.37-.13.84.84,0,0,1,.3.08l-.17.39a.4.4,0,0,0-.23-.08.61.61,0,0,0-.45.25,1.78,1.78,0,0,0-.36.87l-.21,1Z" transform="translate(-215.43 -234.04)"/><path class="cls-4" d="M255.5,265.72l.51-2.44h.41l-.08.4a1.78,1.78,0,0,1,.41-.36.9.9,0,0,1,.4-.09.6.6,0,0,1,.38.12.56.56,0,0,1,.2.33,1.69,1.69,0,0,1,.39-.34.85.85,0,0,1,.44-.11.61.61,0,0,1,.45.14.51.51,0,0,1,.16.41,1.91,1.91,0,0,1-.06.37l-.32,1.57h-.42l.34-1.61c0-.13,0-.23,0-.28a.24.24,0,0,0-.08-.19.28.28,0,0,0-.21-.07.82.82,0,0,0-.38.11.79.79,0,0,0-.3.3,2.23,2.23,0,0,0-.19.56l-.25,1.18h-.41l.34-1.65a1,1,0,0,0,0-.24.26.26,0,0,0-.07-.19.27.27,0,0,0-.2-.07.78.78,0,0,0-.37.11,1,1,0,0,0-.32.31,2.27,2.27,0,0,0-.2.58l-.24,1.15Z" transform="translate(-215.43 -234.04)"/><path class="cls-4" d="M261,265.42a1.8,1.8,0,0,1-.41.27,1.07,1.07,0,0,1-.43.09.77.77,0,0,1-.55-.2.73.73,0,0,1,.14-1.13,1.24,1.24,0,0,1,.37-.13,3.62,3.62,0,0,1,.54-.05,1.75,1.75,0,0,0,.56-.08,1.19,1.19,0,0,0,.05-.28.28.28,0,0,0-.11-.23.66.66,0,0,0-.42-.11.71.71,0,0,0-.43.11.68.68,0,0,0-.24.33l-.42,0a1.07,1.07,0,0,1,.4-.56,1.21,1.21,0,0,1,.71-.19,1.14,1.14,0,0,1,.72.21.53.53,0,0,1,.2.42,2,2,0,0,1-.06.45l-.13.61a1.9,1.9,0,0,0-.07.47,1.76,1.76,0,0,0,.05.33H261A1.86,1.86,0,0,1,261,265.42Zm.16-.93-.19.05-.34,0a2.71,2.71,0,0,0-.51.08.37.37,0,0,0-.22.16.41.41,0,0,0-.08.24.36.36,0,0,0,.12.28.47.47,0,0,0,.34.12.8.8,0,0,0,.4-.11.81.81,0,0,0,.3-.31A1.54,1.54,0,0,0,261.13,264.49Z" transform="translate(-215.43 -234.04)"/><path class="cls-4" d="M261.85,265.72l.51-2.44h.38l-.09.43a2,2,0,0,1,.46-.37.86.86,0,0,1,.43-.11.64.64,0,0,1,.47.16.56.56,0,0,1,.17.43,2.28,2.28,0,0,1-.06.42l-.31,1.48h-.42l.33-1.54a2.28,2.28,0,0,0,0-.34.25.25,0,0,0-.09-.2.34.34,0,0,0-.24-.07.8.8,0,0,0-.57.23,1.42,1.42,0,0,0-.37.79l-.23,1.13Z" transform="translate(-215.43 -234.04)"/><path class="cls-4" d="M266.17,264.89l.4,0a1.25,1.25,0,0,1-.4.58,1.11,1.11,0,0,1-.75.27.92.92,0,0,1-.49-.13.76.76,0,0,1-.35-.36,1.2,1.2,0,0,1-.12-.55,1.65,1.65,0,0,1,.19-.77,1.27,1.27,0,0,1,.48-.56,1.16,1.16,0,0,1,.63-.18.93.93,0,0,1,.7.27,1,1,0,0,1,.26.74,2.19,2.19,0,0,1,0,.36h-1.8s0,.1,0,.13a.82.82,0,0,0,.16.53.5.5,0,0,0,.39.18.78.78,0,0,0,.42-.14A1,1,0,0,0,266.17,264.89Zm-1.21-.6h1.37v-.09a.65.65,0,0,0-.16-.48.48.48,0,0,0-.4-.17.72.72,0,0,0-.48.18A1.1,1.1,0,0,0,265,264.29Z" transform="translate(-215.43 -234.04)"/><path class="cls-4" d="M266.9,265.72l.51-2.44h.38l-.09.43a1.82,1.82,0,0,1,.46-.37.84.84,0,0,1,.43-.11.64.64,0,0,1,.47.16.56.56,0,0,1,.17.43,2.28,2.28,0,0,1-.06.42l-.31,1.48h-.42l.33-1.54a2,2,0,0,0,0-.34.24.24,0,0,0-.08-.2.36.36,0,0,0-.24-.07.78.78,0,0,0-.57.23,1.42,1.42,0,0,0-.37.79l-.24,1.13Z" transform="translate(-215.43 -234.04)"/><path class="cls-4" d="M270.4,265.38l-.07.34a1,1,0,0,1-.29,0,.62.62,0,0,1-.4-.12.31.31,0,0,1-.11-.25,2.52,2.52,0,0,1,.06-.37l.3-1.42h-.33l.07-.32H270l.13-.6.48-.29-.19.89h.41l-.07.32h-.41L270,265c0,.17,0,.28,0,.31a.12.12,0,0,0,0,.11.2.2,0,0,0,.14,0A1,1,0,0,0,270.4,265.38Z" transform="translate(-215.43 -234.04)"/><path class="cls-4" d="M271.91,265.72l.44-2.12H272l.07-.32h.37l.07-.35a1.89,1.89,0,0,1,.11-.37.5.5,0,0,1,.19-.19.74.74,0,0,1,.36-.08,2.72,2.72,0,0,1,.46.07l-.07.36a1.81,1.81,0,0,0-.36-.05.24.24,0,0,0-.18.06.63.63,0,0,0-.11.29l-.06.26h.47l-.07.32h-.46l-.45,2.12Z" transform="translate(-215.43 -234.04)"/><path class="cls-4" d="M273.06,265.72l.51-2.44h.37l-.1.5a1.58,1.58,0,0,1,.37-.42.6.6,0,0,1,.37-.13.84.84,0,0,1,.3.08l-.17.39a.4.4,0,0,0-.23-.08.61.61,0,0,0-.45.25,1.69,1.69,0,0,0-.36.87l-.21,1Z" transform="translate(-215.43 -234.04)"/><path class="cls-4" d="M276.33,264.89l.41,0a1.27,1.27,0,0,1-.41.58,1.07,1.07,0,0,1-.74.27,1,1,0,0,1-.5-.13.81.81,0,0,1-.35-.36,1.35,1.35,0,0,1-.11-.55,1.77,1.77,0,0,1,.18-.77,1.27,1.27,0,0,1,.48-.56,1.21,1.21,0,0,1,.64-.18.9.9,0,0,1,.69.27,1,1,0,0,1,.27.74,2.2,2.2,0,0,1,0,.36h-1.79a.66.66,0,0,0,0,.13.82.82,0,0,0,.15.53.51.51,0,0,0,.39.18.78.78,0,0,0,.42-.14A1,1,0,0,0,276.33,264.89Zm-1.21-.6h1.37v-.09a.69.69,0,0,0-.15-.48.51.51,0,0,0-.4-.17.76.76,0,0,0-.49.18A1.1,1.1,0,0,0,275.12,264.29Z" transform="translate(-215.43 -234.04)"/><path class="cls-4" d="M278.86,264.89l.4,0a1.25,1.25,0,0,1-.4.58,1.11,1.11,0,0,1-.75.27,1,1,0,0,1-.5-.13.79.79,0,0,1-.34-.36,1.2,1.2,0,0,1-.12-.55,1.65,1.65,0,0,1,.19-.77,1.32,1.32,0,0,1,.47-.56,1.21,1.21,0,0,1,.64-.18.94.94,0,0,1,.7.27,1,1,0,0,1,.26.74,2.19,2.19,0,0,1,0,.36h-1.8a.66.66,0,0,0,0,.13.76.76,0,0,0,.16.53.48.48,0,0,0,.38.18.73.73,0,0,0,.42-.14A1,1,0,0,0,278.86,264.89Zm-1.21-.6H279v-.09a.65.65,0,0,0-.16-.48.5.5,0,0,0-.4-.17.76.76,0,0,0-.49.18A1.17,1.17,0,0,0,277.65,264.29Z" transform="translate(-215.43 -234.04)"/></svg>